<svg xmlns="http://www.w3.org/2000/svg" viewBox="0 0 1000 700" width="1000" height="700" role="img" aria-label="Tech inventory: Languages, Core CS, AI and ML, Frameworks, Data stores, Tools and libraries.">
  <title>Tech Inventory — Gagandeep N</title>

  <defs>
    <linearGradient id="iGlass" x1="0" y1="0" x2="0.6" y2="1">
      <stop offset="0" stop-color="#FFFFFF" stop-opacity="0.05"/>
      <stop offset="1" stop-color="#FFFFFF" stop-opacity="0.012"/>
    </linearGradient>
    <linearGradient id="iSweep" x1="0" y1="0" x2="1" y2="0">
      <stop offset="0" stop-color="#22D3EE" stop-opacity="0"/>
      <stop offset="0.5" stop-color="#67E8F9"/>
      <stop offset="1" stop-color="#22D3EE" stop-opacity="0"/>
    </linearGradient>
    <pattern id="iHex" width="27.71" height="48" patternUnits="userSpaceOnUse">
      <g fill="none" stroke="#22D3EE" stroke-width="0.6" stroke-opacity="0.5">
        <path d="M13.855 -16 L27.71 -8 L27.71 8 L13.855 16 L0 8 L0 -8 Z"/>
        <path d="M13.855 32 L27.71 40 L27.71 56 L13.855 64 L0 56 L0 40 Z"/>
        <path d="M0 8 L13.855 16 L13.855 32 L0 40 L-13.855 32 L-13.855 16 Z"/>
        <path d="M27.71 8 L41.565 16 L41.565 32 L27.71 40 L13.855 32 L13.855 16 Z"/>
      </g>
    </pattern>
    <radialGradient id="iAura" cx="0.5" cy="0.5" r="0.5">
      <stop offset="0" stop-color="#A855F7" stop-opacity="0.18"/>
      <stop offset="1" stop-color="#A855F7" stop-opacity="0"/>
    </radialGradient>
    <filter id="iGlow" x="-60%" y="-60%" width="220%" height="220%">
      <feGaussianBlur stdDeviation="2.5" result="b"/>
      <feMerge><feMergeNode in="b"/><feMergeNode in="SourceGraphic"/></feMerge>
    </filter>
  </defs>

  <rect width="1000" height="700" fill="#09090B"/>
  <ellipse cx="500" cy="350" rx="520" ry="330" fill="url(#iAura)"/>
  <rect width="1000" height="700" fill="url(#iHex)" opacity="0.13"/>

  <!-- header -->
  <g>
    <text x="20" y="34" font-family="ui-monospace,SFMono-Regular,Menlo,Consolas,monospace" font-size="14" letter-spacing="3.4" fill="#67E8F9">TECH INVENTORY</text>
    <path d="M186 29 H842" stroke="#22D3EE" stroke-opacity="0.28"/>
    <rect x="186" y="28" width="96" height="2" fill="url(#iSweep)">
      <animate attributeName="x" values="186;746;186" dur="7.5s" repeatCount="indefinite"/>
    </rect>
    <text x="862" y="34" font-family="ui-monospace,SFMono-Regular,Menlo,Consolas,monospace" font-size="12" letter-spacing="2" fill="#5D6B7E">28 EQUIPPED</text>
  </g>

  <!-- ═══ CARD 01 · LANGUAGES ═══════════════════════════════════════════ -->
  <g>
    <rect x="20" y="72" width="300" height="298" rx="12" fill="#0B0F16" fill-opacity="0.9" stroke="#22D3EE" stroke-opacity="0.30"/>
    <rect x="20" y="72" width="300" height="298" rx="12" fill="url(#iGlass)"/>
    <path d="M20 104 V84 Q20 72 32 72 H62" fill="none" stroke="#67E8F9" stroke-width="2"/>
    <text x="286" y="98" text-anchor="end" font-family="ui-monospace,SFMono-Regular,Menlo,Consolas,monospace" font-size="11" letter-spacing="1.6" fill="#2E3A4A">01</text>
    <g transform="translate(44,100)">
      <path d="M0 -11 L9.5 -5.5 L9.5 5.5 L0 11 L-9.5 5.5 L-9.5 -5.5 Z" fill="none" stroke="#22D3EE" stroke-width="1.4"/>
      <path d="M-3 -4 L3 0 L-3 4" fill="none" stroke="#67E8F9" stroke-width="1.4" stroke-linecap="round"/>
    </g>
    <text x="66" y="106" font-family="Segoe UI,Helvetica Neue,Arial,sans-serif" font-size="17" font-weight="700" letter-spacing="2.6" fill="#67E8F9">LANGUAGES</text>
    <path d="M40 124 H300" stroke="#22D3EE" stroke-opacity="0.2"/>
    <g font-family="ui-monospace,SFMono-Regular,Menlo,Consolas,monospace" font-size="17" fill="#C9D6E4">
      <text x="66" y="162">Python</text>      <text x="44" y="162" fill="#22D3EE">▸</text>
      <text x="66" y="196">C</text>           <text x="44" y="196" fill="#22D3EE">▸</text>
      <text x="66" y="230">JavaScript</text>  <text x="44" y="230" fill="#22D3EE">▸</text>
      <text x="66" y="264">HTML5</text>       <text x="44" y="264" fill="#22D3EE">▸</text>
      <text x="66" y="298">CSS3</text>        <text x="44" y="298" fill="#22D3EE">▸</text>
    </g>
    <text x="44" y="340" font-family="ui-monospace,SFMono-Regular,Menlo,Consolas,monospace" font-size="10.5" letter-spacing="1.6" fill="#3E4C5E">SLOT 01 · 05 ITEMS</text>
    <rect x="40" y="352" width="80" height="2" rx="1" fill="#22D3EE" fill-opacity="0.6"/>
  </g>

  <!-- ═══ CARD 02 · CORE CS ═════════════════════════════════════════════ -->
  <g>
    <rect x="350" y="72" width="300" height="298" rx="12" fill="#0B0F16" fill-opacity="0.9" stroke="#3B82F6" stroke-opacity="0.30"/>
    <rect x="350" y="72" width="300" height="298" rx="12" fill="url(#iGlass)"/>
    <path d="M350 104 V84 Q350 72 362 72 H392" fill="none" stroke="#7CB0FF" stroke-width="2"/>
    <text x="616" y="98" text-anchor="end" font-family="ui-monospace,SFMono-Regular,Menlo,Consolas,monospace" font-size="11" letter-spacing="1.6" fill="#2E3A4A">02</text>
    <g transform="translate(374,100)">
      <path d="M0 -11 L9.5 -5.5 L9.5 5.5 L0 11 L-9.5 5.5 L-9.5 -5.5 Z" fill="none" stroke="#3B82F6" stroke-width="1.4"/>
      <circle cx="0" cy="0" r="2.6" fill="#7CB0FF"/>
    </g>
    <text x="396" y="106" font-family="Segoe UI,Helvetica Neue,Arial,sans-serif" font-size="17" font-weight="700" letter-spacing="2.6" fill="#7CB0FF">CORE CS</text>
    <path d="M370 124 H630" stroke="#3B82F6" stroke-opacity="0.2"/>
    <g font-family="ui-monospace,SFMono-Regular,Menlo,Consolas,monospace" font-size="17" fill="#C9D6E4">
      <text x="396" y="162">Data Structures</text> <text x="374" y="162" fill="#3B82F6">▸</text>
      <text x="396" y="196">Algorithms</text>      <text x="374" y="196" fill="#3B82F6">▸</text>
      <text x="396" y="230">OOP</text>             <text x="374" y="230" fill="#3B82F6">▸</text>
      <text x="396" y="264">Operating Systems</text><text x="374" y="264" fill="#3B82F6">▸</text>
      <text x="396" y="298">Computer Networks</text><text x="374" y="298" fill="#3B82F6">▸</text>
    </g>
    <text x="374" y="340" font-family="ui-monospace,SFMono-Regular,Menlo,Consolas,monospace" font-size="10.5" letter-spacing="1.6" fill="#3E4C5E">SLOT 02 · FOUNDATION</text>
    <rect x="370" y="352" width="80" height="2" rx="1" fill="#3B82F6" fill-opacity="0.6"/>
  </g>

  <!-- ═══ CARD 03 · AI / ML ═════════════════════════════════════════════ -->
  <g>
    <rect x="680" y="72" width="300" height="298" rx="12" fill="#0B0F16" fill-opacity="0.9" stroke="#A855F7" stroke-opacity="0.32"/>
    <rect x="680" y="72" width="300" height="298" rx="12" fill="url(#iGlass)"/>
    <path d="M680 104 V84 Q680 72 692 72 H722" fill="none" stroke="#C99BFF" stroke-width="2"/>
    <text x="946" y="98" text-anchor="end" font-family="ui-monospace,SFMono-Regular,Menlo,Consolas,monospace" font-size="11" letter-spacing="1.6" fill="#2E3A4A">03</text>
    <g transform="translate(704,100)">
      <path d="M0 -11 L9.5 -5.5 L9.5 5.5 L0 11 L-9.5 5.5 L-9.5 -5.5 Z" fill="none" stroke="#A855F7" stroke-width="1.4"/>
      <path d="M-4 2 L-1 -3 L2 1 L4 -2" fill="none" stroke="#C99BFF" stroke-width="1.4" stroke-linecap="round"/>
    </g>
    <text x="726" y="106" font-family="Segoe UI,Helvetica Neue,Arial,sans-serif" font-size="17" font-weight="700" letter-spacing="2.6" fill="#C99BFF">AI / ML</text>
    <path d="M700 124 H960" stroke="#A855F7" stroke-opacity="0.2"/>
    <g font-family="ui-monospace,SFMono-Regular,Menlo,Consolas,monospace" font-size="17" fill="#C9D6E4">
      <text x="726" y="162">Computer Vision</text>  <text x="704" y="162" fill="#A855F7">▸</text>
      <text x="726" y="196">Image Processing</text> <text x="704" y="196" fill="#A855F7">▸</text>
      <text x="726" y="230">Prompt Engineering</text><text x="704" y="230" fill="#A855F7">▸</text>
    </g>
    <!-- detection motif -->
    <g opacity="0.85">
      <rect x="704" y="252" width="252" height="72" rx="6" fill="#080C12" stroke="#A855F7" stroke-opacity="0.22"/>
      <g fill="none" stroke="#3BFFA1" stroke-width="1.1">
        <rect x="722" y="266" width="46" height="44"/>
      </g>
      <text x="722" y="262" font-family="ui-monospace,SFMono-Regular,Menlo,Consolas,monospace" font-size="8" fill="#3BFFA1">CLASS 0.97</text>
      <g fill="none" stroke="#67E8F9" stroke-width="1.1">
        <rect x="800" y="278" width="64" height="32"/>
      </g>
      <text x="800" y="274" font-family="ui-monospace,SFMono-Regular,Menlo,Consolas,monospace" font-size="8" fill="#67E8F9">EDGE 0.92</text>
      <g fill="#FF2E88">
        <circle cx="894" cy="276" r="1.4"/><circle cx="906" cy="284" r="1.4"/><circle cx="918" cy="272" r="1.4"/>
        <circle cx="900" cy="298" r="1.4"/><circle cx="916" cy="294" r="1.4"/>
      </g>
      <rect x="704" y="252" width="252" height="10" fill="#22D3EE" opacity="0.08">
        <animate attributeName="y" values="252;314;252" dur="4.6s" repeatCount="indefinite"/>
      </rect>
    </g>
    <text x="704" y="345" font-family="ui-monospace,SFMono-Regular,Menlo,Consolas,monospace" font-size="10.5" letter-spacing="1.6" fill="#3E4C5E">SLOT 03 · PERCEPTION</text>
  </g>

  <!-- ═══ CARD 04 · FRAMEWORKS ══════════════════════════════════════════ -->
  <g>
    <rect x="20" y="390" width="300" height="298" rx="12" fill="#0B0F16" fill-opacity="0.9" stroke="#3BFFA1" stroke-opacity="0.28"/>
    <rect x="20" y="390" width="300" height="298" rx="12" fill="url(#iGlass)"/>
    <path d="M20 422 V402 Q20 390 32 390 H62" fill="none" stroke="#7CFFC4" stroke-width="2"/>
    <text x="286" y="416" text-anchor="end" font-family="ui-monospace,SFMono-Regular,Menlo,Consolas,monospace" font-size="11" letter-spacing="1.6" fill="#2E3A4A">04</text>
    <g transform="translate(44,418)">
      <path d="M0 -11 L9.5 -5.5 L9.5 5.5 L0 11 L-9.5 5.5 L-9.5 -5.5 Z" fill="none" stroke="#3BFFA1" stroke-width="1.4"/>
      <path d="M-4 0 H4 M0 -4 V4" stroke="#7CFFC4" stroke-width="1.4" stroke-linecap="round"/>
    </g>
    <text x="66" y="424" font-family="Segoe UI,Helvetica Neue,Arial,sans-serif" font-size="17" font-weight="700" letter-spacing="2.6" fill="#7CFFC4">FRAMEWORKS</text>
    <path d="M40 442 H300" stroke="#3BFFA1" stroke-opacity="0.2"/>
    <g font-family="ui-monospace,SFMono-Regular,Menlo,Consolas,monospace" font-size="17" fill="#C9D6E4">
      <text x="66" y="478">MERN Stack</text>  <text x="44" y="478" fill="#3BFFA1">▸</text>
      <text x="66" y="510">React</text>       <text x="44" y="510" fill="#3BFFA1">▸</text>
      <text x="66" y="542">Next.js</text>     <text x="44" y="542" fill="#3BFFA1">▸</text>
      <text x="66" y="574">Node.js</text>     <text x="44" y="574" fill="#3BFFA1">▸</text>
      <text x="66" y="606">Express.js</text>  <text x="44" y="606" fill="#3BFFA1">▸</text>
      <text x="66" y="638">FastAPI</text>     <text x="44" y="638" fill="#3BFFA1">▸</text>
    </g>
    <text x="44" y="668" font-family="ui-monospace,SFMono-Regular,Menlo,Consolas,monospace" font-size="10.5" letter-spacing="1.6" fill="#3E4C5E">SLOT 04 · BUILD KIT</text>
  </g>

  <!-- ═══ CARD 05 · DATA STORES ═════════════════════════════════════════ -->
  <g>
    <rect x="350" y="390" width="300" height="298" rx="12" fill="#0B0F16" fill-opacity="0.9" stroke="#FF2E88" stroke-opacity="0.26"/>
    <rect x="350" y="390" width="300" height="298" rx="12" fill="url(#iGlass)"/>
    <path d="M350 422 V402 Q350 390 362 390 H392" fill="none" stroke="#FF6FAE" stroke-width="2"/>
    <text x="616" y="416" text-anchor="end" font-family="ui-monospace,SFMono-Regular,Menlo,Consolas,monospace" font-size="11" letter-spacing="1.6" fill="#2E3A4A">05</text>
    <g transform="translate(374,418)">
      <path d="M0 -11 L9.5 -5.5 L9.5 5.5 L0 11 L-9.5 5.5 L-9.5 -5.5 Z" fill="none" stroke="#FF2E88" stroke-width="1.4"/>
      <ellipse cx="0" cy="-2" rx="4" ry="1.6" fill="none" stroke="#FF6FAE" stroke-width="1.2"/>
      <path d="M-4 -2 V3 a4 1.6 0 0 0 8 0 V-2" fill="none" stroke="#FF6FAE" stroke-width="1.2"/>
    </g>
    <text x="396" y="424" font-family="Segoe UI,Helvetica Neue,Arial,sans-serif" font-size="17" font-weight="700" letter-spacing="2.6" fill="#FF6FAE">DATA STORES</text>
    <path d="M370 442 H630" stroke="#FF2E88" stroke-opacity="0.2"/>
    <g font-family="ui-monospace,SFMono-Regular,Menlo,Consolas,monospace" font-size="17" fill="#C9D6E4">
      <text x="396" y="478">MongoDB</text> <text x="374" y="478" fill="#FF2E88">▸</text>
      <text x="396" y="510">SQLite</text>  <text x="374" y="510" fill="#FF2E88">▸</text>
    </g>
    <!-- db stack motif -->
    <g transform="translate(500,590)" opacity="0.9">
      <g fill="none" stroke="#FF2E88" stroke-opacity="0.45" stroke-width="1.4">
        <ellipse cx="0" cy="-34" rx="46" ry="13"/>
        <path d="M-46 -34 V-12 a46 13 0 0 0 92 0 V-34"/>
        <path d="M-46 -12 V10 a46 13 0 0 0 92 0 V-12"/>
        <path d="M-46 10 V32 a46 13 0 0 0 92 0 V10"/>
      </g>
      <g fill="#67E8F9">
        <circle cx="-24" cy="-14" r="2"><animate attributeName="opacity" values="1;0.2;1" dur="2.4s" repeatCount="indefinite"/></circle>
        <circle cx="0" cy="10" r="2"><animate attributeName="opacity" values="0.2;1;0.2" dur="3s" repeatCount="indefinite"/></circle>
        <circle cx="26" cy="32" r="2"><animate attributeName="opacity" values="1;0.2;1" dur="2.7s" repeatCount="indefinite"/></circle>
      </g>
    </g>
    <text x="374" y="668" font-family="ui-monospace,SFMono-Regular,Menlo,Consolas,monospace" font-size="10.5" letter-spacing="1.6" fill="#3E4C5E">SLOT 05 · PERSISTENCE</text>
  </g>

  <!-- ═══ CARD 06 · TOOLS &amp; LIBS ══════════════════════════════════════ -->
  <g>
    <rect x="680" y="390" width="300" height="298" rx="12" fill="#0B0F16" fill-opacity="0.9" stroke="#22D3EE" stroke-opacity="0.30"/>
    <rect x="680" y="390" width="300" height="298" rx="12" fill="url(#iGlass)"/>
    <path d="M980 656 V676 Q980 688 968 688 H938" fill="none" stroke="#67E8F9" stroke-width="2"/>
    <text x="946" y="416" text-anchor="end" font-family="ui-monospace,SFMono-Regular,Menlo,Consolas,monospace" font-size="11" letter-spacing="1.6" fill="#2E3A4A">06</text>
    <g transform="translate(704,418)">
      <path d="M0 -11 L9.5 -5.5 L9.5 5.5 L0 11 L-9.5 5.5 L-9.5 -5.5 Z" fill="none" stroke="#22D3EE" stroke-width="1.4"/>
      <path d="M-4 -3 L0 3 L4 -3" fill="none" stroke="#67E8F9" stroke-width="1.4" stroke-linecap="round"/>
    </g>
    <text x="726" y="424" font-family="Segoe UI,Helvetica Neue,Arial,sans-serif" font-size="17" font-weight="700" letter-spacing="2.6" fill="#67E8F9">TOOLS &amp; LIBS</text>
    <path d="M700 442 H960" stroke="#22D3EE" stroke-opacity="0.2"/>
    <g font-family="ui-monospace,SFMono-Regular,Menlo,Consolas,monospace" font-size="17" fill="#C9D6E4">
      <text x="726" y="478">NumPy</text>       <text x="704" y="478" fill="#22D3EE">▸</text>
      <text x="726" y="510">Pandas</text>      <text x="704" y="510" fill="#22D3EE">▸</text>
      <text x="726" y="542">Matplotlib</text>  <text x="704" y="542" fill="#22D3EE">▸</text>
      <text x="726" y="574">Git &amp; GitHub</text><text x="704" y="574" fill="#22D3EE">▸</text>
      <text x="726" y="606">Power BI</text>    <text x="704" y="606" fill="#22D3EE">▸</text>
      <text x="726" y="638">Excel · PowerPoint</text><text x="704" y="638" fill="#22D3EE">▸</text>
    </g>
    <text x="704" y="668" font-family="ui-monospace,SFMono-Regular,Menlo,Consolas,monospace" font-size="10.5" letter-spacing="1.6" fill="#3E4C5E">SLOT 06 · UTILITY BELT</text>
  </g>

  <!-- scanline -->
  <rect x="0" y="-80" width="1000" height="80" fill="#22D3EE" opacity="0.04">
    <animate attributeName="y" values="-80;700" dur="12s" repeatCount="indefinite"/>
  </rect>
</svg>
